<svg width="24" height="24" viewBox="0 0 24 24" fill="none" xmlns="http://www.w3.org/2000/svg">
<rect x="0.5" y="0.5" width="23" height="23" rx="11.5" fill="#F5F5F5"/>
<rect x="0.5" y="0.5" width="23" height="23" rx="11.5" stroke="#E4E7EC"/>
<path fill-rule="evenodd" clip-rule="evenodd" d="M12.2726 5.18713C9.45162 5.18713 7.16471 7.47404 7.16471 10.2951V10.7592C7.16471 11.2185 7.02875 11.6676 6.77395 12.0497L6.01692 13.1853C5.13829 14.5033 5.80905 16.2947 7.33721 16.7114C7.83523 16.8472 8.33745 16.9621 8.84258 17.0561L8.84384 17.0595C9.35067 18.4119 10.7053 19.3576 12.2726 19.3576C13.84 19.3576 15.1946 18.4119 15.7014 17.0595L15.7027 17.0561C16.2078 16.9621 16.7101 16.8472 17.2081 16.7114C18.7363 16.2947 19.407 14.5033 18.5284 13.1853L17.7714 12.0497C17.5166 11.6676 17.3806 11.2185 17.3806 10.7592V10.2951C17.3806 7.47404 15.0937 5.18713 12.2726 5.18713ZM14.498 17.2399C13.0197 17.4166 11.5255 17.4165 10.0472 17.2399C10.5158 17.9132 11.3308 18.369 12.2726 18.369C13.2144 18.369 14.0294 17.9132 14.498 17.2399ZM8.15335 10.2951C8.15335 8.02005 9.99763 6.17577 12.2726 6.17577C14.5477 6.17577 16.392 8.02005 16.392 10.2951V10.7592C16.392 11.4137 16.5857 12.0535 16.9488 12.5981L17.7058 13.7337C18.2101 14.4901 17.8251 15.5184 16.948 15.7576C13.887 16.5924 10.6583 16.5924 7.59734 15.7576C6.7202 15.5184 6.3352 14.4901 6.83951 13.7337L7.59655 12.5981C7.95961 12.0535 8.15335 11.4137 8.15335 10.7592V10.2951Z" fill="#03003E"/>
</svg>
